<?xml version="1.0" encoding="UTF-8"?>
<svg width="659px" height="613px" viewBox="0 0 659 613" version="1.1" xmlns="http://www.w3.org/2000/svg" xmlns:xlink="http://www.w3.org/1999/xlink">
    <!-- Generator: Sketch 57.1 (83088) - https://sketch.com -->
    <title>team</title>
    <desc>Created with Sketch.</desc>
    <g id="Page-1" stroke="none" stroke-width="1" fill="none" fill-rule="evenodd">
        <g id="team" transform="translate(0.000000, -1.000000)">
            <path d="M267.5,2.06 C266.565531,2.78229733 265.868911,3.7680145 265.5,4.89 C265.380334,5.27851606 265.322956,5.68353337 265.33,6.09 C265.429669,7.13924266 266.326492,7.93107233 267.38,7.9 C269.3,8 272.27,8.05 274.5,8.05 C276.73,8.05 279.7,8 281.62,7.9 C282.673508,7.93107233 283.570331,7.13924266 283.67,6.09 C283.678106,5.68018871 283.620717,5.27171218 283.5,4.88 C283.159652,3.74387099 282.457336,2.75009493 281.5,2.05 C280.31,1.35 277.37,0.99 274.5,0.99 C271.63,0.99 268.57,1.21 267.5,2.06 L267.5,2.06 Z" id="Path" fill="#EFB000" fill-rule="nonzero"></path>
            <path d="M176.16,282.25 C171.047685,278.849574 165.049876,277.024153 158.91,277 L158.82,277 C152.683192,277.015258 146.685633,278.830172 141.57,282.22 C141.57,282.22 138.24,289.74 140.63,290.79 C145.38,292.87 139.84,296.95 144.13,298.72 C147.9,300.28 146.13,302.72 148.32,303.2 C150.51,303.68 152.72,304.2 159.09,304.2 C165.46,304.2 167.25,303.72 169.41,303.2 C171.57,302.68 169.83,300.28 173.6,298.72 C177.88,296.95 172.6,293.32 177.1,290.79 C178.8,289.86 176.16,282.25 176.16,282.25 Z" id="Path" fill="#3B446B" fill-rule="nonzero"></path>
            <path d="M176.16,282.25 C171.047432,278.85011 165.049788,277.02474 158.91,277 L158.82,277 C152.68328,277.015845 146.685886,278.830708 141.57,282.22 C141.57,282.22 138.67,288.76 140.23,290.49 C152.055819,285.202202 165.574181,285.202202 177.4,290.49 C178.41,288.74 176.16,282.25 176.16,282.25 L176.16,282.25 Z" id="Path" fill="#1F2B56" fill-rule="nonzero"></path>
            <path d="M274.25,310.54 C274.25,310.54 258.55,310.54 248.76,303.61 C248.76,303.61 251.82,319.51 261.76,331.34 C261.76,331.34 263.39,333.34 274.2,333.34 C285.01,333.34 286.64,331.34 286.64,331.34 C296.64,319.51 299.64,303.61 299.64,303.61 C289.95,310.54 274.25,310.54 274.25,310.54 Z" id="Path" fill="#3B446B" fill-rule="nonzero"></path>
            <path d="M274.25,310.54 C274.25,310.54 258.55,310.54 248.76,303.61 C249.459096,306.848675 250.398359,310.030805 251.57,313.13 C266.152065,318.815558 282.337935,318.815558 296.92,313.13 C298.09208,310.02754 299.031347,306.842054 299.73,303.6 C289.95,310.54 274.25,310.54 274.25,310.54 L274.25,310.54 Z" id="Path" fill="#1F2B56" fill-rule="nonzero"></path>
            <circle id="Oval" fill="#E2A100" fill-rule="nonzero" cx="186.93" cy="138.78" r="16.75"></circle>
            <path d="M184.76,119.65 C184.669373,118.915196 184.250015,118.261285 183.620006,117.87239 C182.989997,117.483496 182.217489,117.401688 181.52,117.65 C175.624572,119.700757 170.397998,123.316495 166.4,128.11 C158.29,137.93 157.61,151.74 157.61,156.19 C157.61,157.015058 158.23005,157.708327 159.05,157.8 L180.13,160.32 C180.971247,160.420546 181.749264,159.859853 181.92,159.03 C183,153.62 186.49,134.42 184.76,119.65 L184.76,119.65 Z M313.16,287.91 C311.66,290.37 303.58,304.05 301.37,305.8 C299.16,307.55 291.29,311.4 274.27,311.41 L274.21,311.41 C257.21,311.41 249.32,307.55 247.11,305.8 C244.9,304.05 236.68,290.58 235.33,288 C234.327009,286.442162 234.774369,284.366411 236.33,283.36 L312,283.36 C312.74,283.51 314.31,286 313.16,287.91 L313.16,287.91 Z" id="Shape" fill="#FFC100" fill-rule="nonzero"></path>
            <path d="M359.36,160.9 C358.27,157.6 357.8,150.61 357.91,140.79 C358.01,131.79 359.45,120.79 360,115.92 C360.265538,114.187817 359.781971,112.424434 358.67,111.07 C349.19,99.8 335.25,88.4 329.87,85.25 C324.29,81.99 301.72,87.43 274.24,87.43 C246.76,87.43 224.2,82 218.62,85.25 C213.24,88.4 199.31,99.8 189.82,111.07 C188.708029,112.424434 188.224462,114.187817 188.49,115.92 C189.04,120.76 190.49,131.81 190.58,140.79 C190.69,150.61 190.22,157.6 189.13,160.9 C188.116339,163.345158 187.913063,166.050833 188.55,168.62 C190.27,176.72 197.4,206.7 201.47,217.62 C206.09,230 217.38,238.43 221.6,246.73 C225.82,255.03 237.6,286.73 237.6,286.73 C237.6,286.73 248.96,294.62 274.19,294.62 C299.42,294.62 310.78,286.73 310.78,286.73 C310.78,286.73 322.61,255.04 326.78,246.73 C330.95,238.42 342.39,230 347,217.58 C351.07,206.7 358.2,176.71 359.92,168.58 C360.554486,166.02556 360.358327,163.335381 359.36,160.9 Z" id="Path" fill="#FFC100" fill-rule="nonzero"></path>
            <path d="M318.78,543.19 C313.600898,543.101286 308.456282,542.327912 303.48,540.89 C289.29,537.02 271.14,531.72 270.96,531.67 C270.429807,531.51536 270.12536,530.960193 270.28,530.43 C270.43464,529.899807 270.989807,529.59536 271.52,529.75 C271.7,529.8 289.83,535.09 304.01,538.96 C316.84,542.46 326.7,541.85 333.33,537.16 C339.13,533.04 342.44,525.82 343.17,515.69 C344.06,503.29 346.25,495.14 350.27,489.26 C354.7,482.79 361.64,478.69 372.11,476.37 C400.23,470.14 469,453.24 519.21,440.91 C541.88,435.34 559.78,430.91 568.35,428.91 C601.61,421 624,432.33 628.13,447 C630.94,457 624.56,466.08 611.88,470.23 C605.45,472.33 547.44,487.7 544.97,488.35 C544.451725,488.453478 543.942413,488.1358 543.807391,487.624835 C543.672369,487.113869 543.958262,486.586059 544.46,486.42 C545.06,486.26 604.88,470.42 611.26,468.33 C623.01,464.49 628.74,456.52 626.21,447.54 C624.29,440.73 617.95,434.87 608.81,431.47 C601.19,428.63 588.06,426.21 568.81,430.8 C560.24,432.8 542.34,437.24 519.68,442.8 C469.46,455.14 400.68,472.03 372.53,478.27 C353.77,482.43 346.86,491.89 345.15,515.77 C344.38,526.53 340.79,534.25 334.47,538.77 C330.34,541.72 325.08,543.19 318.78,543.19 L318.78,543.19 Z" id="Path" fill="#DDE7ED" fill-rule="nonzero"></path>
            <path d="M274.25,166.41 C248.682627,182.084004 224.773275,200.314214 202.89,220.82 C207.29,229.82 214.89,236.72 219.46,243.2 C236.887065,227.526296 255.161212,212.820849 274.2,199.15 C274.2,199.15 309.08,222.86 327.63,245.33 C331.63,238.6 339.75,231.64 344.76,222.44 C338.34,215.78 308.77,184.46 274.25,166.41 L274.25,166.41 Z" id="Path" fill="#FFFFFF" fill-rule="nonzero"></path>
            <path d="M169.79,135 C171.372368,131.208659 172.033772,127.096304 171.72,123 C169.769245,124.505206 167.991684,126.222397 166.42,128.12 C161.42,134.19 159.23,141.79 158.3,147.76 C162.56,146.57 167.13,141.73 169.79,135 Z" id="Path" fill="#FED358" fill-rule="nonzero"></path>
            <path d="M410.45,119.65 C410.540627,118.915196 410.959985,118.261285 411.589994,117.87239 C412.220003,117.483496 412.992511,117.401688 413.69,117.65 C419.585428,119.700757 424.812002,123.316495 428.81,128.11 C436.92,137.93 437.6,151.74 437.6,156.19 C437.6,157.015058 436.97995,157.708327 436.16,157.8 L415.08,160.32 C414.238753,160.420546 413.460736,159.859853 413.29,159.03 C412.2,153.62 408.72,134.42 410.45,119.65 L410.45,119.65 Z" id="Path" fill="#FFC100" fill-rule="nonzero"></path>
            <path d="M425.42,135 C423.837632,131.208659 423.176228,127.096304 423.49,123 C425.440755,124.505206 427.218316,126.222397 428.79,128.12 C433.79,134.19 435.98,141.79 436.91,147.76 C432.65,146.57 428.08,141.73 425.42,135 L425.42,135 Z" id="Path" fill="#FED358" fill-rule="nonzero"></path>
            <path d="M327.57,245.33 C309,222.87 274.2,199.15 274.2,199.15 C255.148837,212.807713 236.858236,227.496278 219.41,243.15 C220.208707,244.260753 220.927196,245.427044 221.56,246.64 C225.78,254.94 237.56,286.64 237.56,286.64 C237.56,286.64 248.92,294.53 274.15,294.53 C299.38,294.53 310.74,286.64 310.74,286.64 C310.74,286.64 322.55,254.94 326.74,246.64 C326.9,246.54 327.57,245.33 327.57,245.33 L327.57,245.33 Z" id="Path" fill="#FFA300" fill-rule="nonzero"></path>
            <path d="M272,128.41 C262.83,133.47 228.25,153.35 212.25,174.19 C211.398166,175.297673 211.079693,176.725311 211.38,178.09 C214.07,190.31 229.69,251.03 274.28,250.32 C318.87,251.03 334.49,190.32 337.18,178.09 C337.480307,176.725311 337.161834,175.297673 336.31,174.19 C320.31,153.35 285.73,133.47 276.56,128.41 C275.142302,127.621333 273.417698,127.621333 272,128.41 L272,128.41 Z" id="Path" fill="#FFFFFF" fill-rule="nonzero" opacity="0.15"></path>
            <path d="M274.19,289.84 C258.020258,289.96244 242.565095,283.186029 231.7,271.21 C234.94,279.57 237.6,286.68 237.6,286.68 C237.6,286.68 248.96,294.57 274.19,294.57 C299.42,294.57 310.78,286.68 310.78,286.68 C310.78,286.68 313.42,279.59 316.65,271.25 C305.784708,283.2034 290.343109,289.9641 274.19,289.84 Z" id="Path" fill="#F29500" fill-rule="nonzero"></path>
            <path d="M161.25,213.29 L161.11,213.29 C160.563284,213.212603 160.182767,212.70674 160.26,212.16 L160.83,208.16 C160.881803,207.802734 161.120271,207.500244 161.455574,207.366474 C161.790877,207.232705 162.172074,207.287979 162.455574,207.511475 C162.739073,207.73497 162.881804,208.092734 162.83,208.45 L162.26,212.45 C162.180244,212.942878 161.749159,213.301404 161.25,213.29 L161.25,213.29 Z M162.68,203.39 L162.54,203.39 C161.993284,203.312603 161.612767,202.80674 161.69,202.26 L162.26,198.26 C162.311803,197.902734 162.550271,197.600244 162.885574,197.466475 C163.220877,197.332705 163.602074,197.387979 163.885574,197.611475 C164.169073,197.83497 164.311804,198.192734 164.26,198.55 L163.69,202.55 C163.610244,203.042878 163.179159,203.401404 162.68,203.39 L162.68,203.39 Z M164.11,193.49 L164,193.49 C163.453284,193.412603 163.072767,192.90674 163.15,192.36 L163.72,188.36 C163.771803,188.002734 164.010271,187.700244 164.345574,187.566475 C164.680877,187.432705 165.062074,187.487979 165.345574,187.711475 C165.629073,187.93497 165.771804,188.292734 165.72,188.65 L165.15,192.65 C165.073211,193.162653 164.617406,193.531638 164.1,193.5 L164.11,193.49 Z M165.54,183.59 L165.4,183.59 C164.853284,183.512603 164.472767,183.00674 164.55,182.46 L165.12,178.46 C165.200081,177.907715 165.712715,177.524919 166.265,177.605 C166.817285,177.685081 167.200081,178.197715 167.12,178.75 L166.55,182.75 C166.474283,183.250737 166.036183,183.615821 165.53,183.6 L165.54,183.59 Z M166.97,173.69 L166.83,173.69 C166.283284,173.612603 165.902767,173.10674 165.98,172.56 L166.55,168.56 C166.601803,168.202734 166.840271,167.900244 167.175574,167.766475 C167.510877,167.632705 167.892074,167.687979 168.175574,167.911475 C168.459073,168.13497 168.601804,168.492734 168.55,168.85 L167.98,172.85 C167.906356,173.335528 167.491063,173.695732 167,173.7 L166.97,173.69 Z" id="Shape" fill="#F07580" fill-rule="nonzero"></path>
            <path d="M202.68,177.49 C201.53,150.2 196,126.49 188.68,113.4 C188.478908,114.220754 188.428088,115.071138 188.53,115.91 C189.08,120.75 190.53,131.8 190.62,140.78 C190.73,150.6 190.26,157.59 189.17,160.89 C188.156339,163.335158 187.953063,166.040833 188.59,168.61 C190.24,176.39 196.89,204.34 201.01,216.19 C202.733792,203.366864 203.292742,190.413963 202.68,177.49 L202.68,177.49 Z M183.18,285.33 L183.29,285.28 L183.18,285.33 Z M180.44,229.42 C179.85,228.42 177.6,225.84 158.31,225.84 C145.9,225.84 139.97,228.53 139.97,228.53 L147.25,278.27 C167.32,279.18 177.25,285.99 177.25,285.99 C178.385024,285.830127 179.510139,285.606439 180.62,285.32 C181.7,284.98 182.31,284.51 182.98,282.22 C183.65,279.93 185.81,267.65 185.07,253.83 C184.61,239.2 181.05,230.42 180.44,229.42 L180.44,229.42 Z" id="Shape" fill="#EFB000" fill-rule="nonzero"></path>
            <path d="M176.72,228.31 C176.62,227.4 176.44,226.31 176.32,225.48 C176.220529,224.200196 175.463099,223.064051 174.32,222.48 C170.21,220.17 161.5,220.03 159.21,220.03 C156.92,220.03 148.21,220.17 144.1,222.48 C142.956901,223.064051 142.199471,224.200196 142.1,225.48 C141.97,226.34 141.8,227.39 141.7,228.31 C141.432111,229.297307 141.732296,230.351803 142.48,231.05 C146.01,233.79 154.48,234.52 159.17,234.52 C163.86,234.52 172.34,233.79 175.86,231.05 C176.636673,230.369466 176.968485,229.312299 176.72,228.31 L176.72,228.31 Z" id="Path" fill="#EFB000" fill-rule="nonzero"></path>
            <path d="M248.28,11 C244.049163,18.1051211 241.237195,25.9636882 240,34.14 C238.38,44.23 240,54.3 240.64,57.96 C251.764594,59.401096 262.972534,60.1026362 274.19,60.06 C285.413237,60.116256 296.627849,59.4280791 307.76,58 C308.42,54.34 310.02,44.27 308.4,34.17 C307.175819,25.9854305 304.373962,18.1164559 300.15,11 C299.769234,10.4048524 299.583934,9.70560791 299.62,9 C283.519267,1.49035249 264.920733,1.49035249 248.82,9 C248.853099,9.70668104 248.664279,10.406011 248.28,11 L248.28,11 Z" id="Path" fill="#FFC100" fill-rule="nonzero"></path>
            <path d="M274.27,3.59 C254.75,3.59 233.35,14.03 233.35,26.9 C233.35,33.74 231.71,50.9 231.15,56.53 C242.67,58.82 257.76,60.21 274.27,60.21 C290.78,60.21 305.83,58.82 317.35,56.54 C316.75,51.54 315.19,37.34 315.19,26.91 C315.18,14 293.78,3.59 274.27,3.59 L274.27,3.59 Z" id="Path" fill="#FFC100" fill-rule="nonzero"></path>
            <path d="M295.13,29.55 C288.78,29.55 283,33 274.21,33 C265.42,33 259.74,29.52 253.39,29.52 C247.04,29.52 244.45,33.63 244.45,37.81 C244.45,42.34 246.81,44.65 249.19,45.7 C251.103634,46.5312216 253.276366,46.5312216 255.19,45.7 C257.7,44.62 258.19,44.7 259.57,45.31 C268.925111,49.1823724 279.434889,49.1823724 288.79,45.31 C290.19,44.65 290.66,44.62 293.17,45.7 C295.083634,46.5312216 297.256366,46.5312216 299.17,45.7 C301.55,44.65 303.91,42.33 303.91,37.81 C304,33.66 301.49,29.55 295.13,29.55 L295.13,29.55 Z" id="Path" fill="#3B446B" fill-rule="nonzero"></path>
            <path d="M244.28,34.21 C245.171913,26.051259 247.565525,18.1279283 251.34,10.84 C251.696455,10.1784436 251.859342,9.42985485 251.81,8.68 C251.740288,8.40786501 251.636112,8.14574533 251.5,7.9 C241,12.13 233.1,19 233.1,26.84 C233.1,33.68 231.46,50.84 230.9,56.47 C234.9,57.26 239.33,57.95 244.1,58.47 C244.562556,58.4620727 244.997391,58.2479452 245.285682,57.8861314 C245.573972,57.5243176 245.685577,57.0526427 245.59,56.6 C244.81,52.38 243.44,42.77 244.28,34.21 L244.28,34.21 Z M304,34.21 C303.095584,26.0486449 300.688371,18.1251854 296.9,10.84 C296.543545,10.1784436 296.380658,9.42985485 296.43,8.68 C296.499712,8.40786501 296.603888,8.14574533 296.74,7.9 C307.28,12.13 315.14,19.03 315.14,26.83 C315.14,33.67 316.78,50.83 317.34,56.46 C313.34,57.25 308.91,57.94 304.14,58.46 C303.677444,58.4520727 303.242609,58.2379452 302.954318,57.8761314 C302.666028,57.5143176 302.554423,57.0426427 302.65,56.59 C303.43,52.38 304.8,42.77 304,34.21 Z" id="Shape" fill="#EFB000" fill-rule="nonzero"></path>
            <path d="M227.91,28.55 C232.245616,20.1935188 238.771724,13.1731129 246.79,8.24 C248.52,7.32 249.62,7.24 249.79,8.09 C249.821096,8.79646162 249.632439,9.49519296 249.25,10.09 C245.053712,17.5709358 242.232427,25.7435167 240.92,34.22 C239.907414,41.5260429 240.005186,48.9431864 241.21,56.22 C241.286672,56.716139 241.121454,57.2190261 240.765479,57.5730236 C240.409504,57.9270211 239.905704,58.089435 239.41,58.01 C236.783333,57.6233333 234.29,57.1933333 231.93,56.72 C229.23,56.18 226.73,55.6 224.44,54.98 C223.032194,54.5875518 222.069158,53.291158 222.1,51.83 C222.280529,43.7343854 224.265436,35.7810939 227.91,28.55 L227.91,28.55 Z M320.58,28.55 C316.244384,20.1935188 309.718276,13.1731129 301.7,8.24 C299.97,7.32 298.87,7.24 298.7,8.09 C298.668904,8.79646162 298.857561,9.49519296 299.24,10.09 C303.436288,17.5709358 306.257573,25.7435167 307.57,34.22 C308.582586,41.5260429 308.484814,48.9431864 307.28,56.22 C307.203328,56.716139 307.368546,57.2190261 307.724521,57.5730236 C308.080496,57.9270211 308.584296,58.089435 309.08,58.01 C311.706667,57.6233333 314.2,57.1933333 316.56,56.72 C319.26,56.18 321.76,55.6 324.05,54.98 C325.457806,54.5875518 326.420842,53.291158 326.39,51.83 C326.209471,43.7343854 324.224564,35.7810939 320.58,28.55 L320.58,28.55 Z" id="Shape" fill="#FFC100" fill-rule="nonzero"></path>
            <path d="M274.25,81.81 C273.697715,81.81 273.25,81.3622847 273.25,80.81 L273.25,76.81 C273.25,76.2577153 273.697715,75.81 274.25,75.81 C274.802285,75.81 275.25,76.2577153 275.25,76.81 L275.25,80.81 C275.25,81.3622847 274.802285,81.81 274.25,81.81 Z M274.25,71.81 C273.697715,71.81 273.25,71.3622847 273.25,70.81 L273.25,66.81 C273.25,66.2577153 273.697715,65.81 274.25,65.81 C274.802285,65.81 275.25,66.2577153 275.25,66.81 L275.25,70.81 C275.25,71.3622847 274.802285,71.81 274.25,71.81 Z" id="Shape" fill="#F07580" fill-rule="nonzero"></path>
            <path d="M330.85,85.85 L329.85,85.25 C324.27,81.99 301.7,87.43 274.22,87.43 C246.74,87.43 224.2,82 218.62,85.25 L217.62,85.85 C232.76,92.16 252.56,96 274.26,96 C295.96,96 315.75,92.16 330.85,85.85 Z" id="Path" fill="#EFB000" fill-rule="nonzero"></path>
            <path d="M167.65,247.48 C166.98,243.33 167.09,241.42 162.1,239.74 C161.413268,239.510401 160.744726,239.229613 160.1,238.9 C160.215964,239.183207 160.312847,239.473856 160.39,239.77 C160.47,240.07 160.54,240.39 160.6,240.72 L160.6,240.82 C160.66,241.17 160.72,241.54 160.79,241.93 C160.86,242.32 160.91,242.72 160.98,243.14 C161.05,243.56 161.07,243.73 161.11,244.03 L161.11,244.34 C161.11,244.44 161.16,244.76 161.18,244.98 C161.2,245.2 161.18,245.24 161.18,245.37 C161.18,245.5 161.18,245.76 161.23,245.97 C161.28,246.18 161.23,246.29 161.23,246.45 L161.23,256.37 C161.23,256.53 161.23,256.9 161.18,257.16 L161.18,257.6 C161.18,257.88 161.18,258.15 161.12,258.43 L161.12,258.84 C161.12,259.126667 161.093333,259.413333 161.04,259.7 L161.04,260.07 C161.04,260.37 161.01,260.67 160.95,260.97 L160.95,261.3 C160.95,261.613333 160.916667,261.926667 160.85,262.24 L160.85,262.51 C160.81,262.836667 160.77,263.17 160.73,263.51 L160.73,263.74 C160.69,264.073333 160.646667,264.406667 160.6,264.74 L160.6,264.93 C160.553333,265.276667 160.506667,265.61 160.46,265.93 L160.46,266.07 C160.406667,266.423333 160.353333,266.756667 160.3,267.07 L160.3,267.16 C160.246667,267.513333 160.19,267.846667 160.13,268.16 L160.13,268.24 C160.07,268.593333 160.01,268.926667 159.95,269.24 C159.883333,269.586667 159.816667,269.92 159.75,270.24 C159.354103,272.490642 158.751553,274.699992 157.95,276.84 L157.82,277.15 C157.547278,277.791217 157.212342,278.404149 156.82,278.98 C159.480931,279.384083 162.118103,279.931547 164.72,280.62 C164.98,279.74 165.25,278.69 165.52,277.49 C167.15,269.64 168.91,255.24 167.65,247.48 L167.65,247.48 Z" id="Path" fill="#E2A100" fill-rule="nonzero"></path>
            <path d="M136.91,221.93 C135.27,225.76 131.45,240.03 131.45,256.05 C131.45,264.92 131.96,288.89 140.15,290.41 C140.15,290.41 141.53,287 146.35,284 C152.09,280.43 155.06,283.1 157.65,277.36 C160.24,271.62 162.56,252.47 161.04,243.16 C160.37,239.01 160.48,237.1 155.49,235.42 C149.15,233.28 144.65,226.34 142.26,222.18 C140.31,218.81 138,219.41 136.91,221.93 L136.91,221.93 Z" id="Path" fill="#FFC100" fill-rule="nonzero"></path>
            <path d="M142.41,296 C142.41,295.76 142.47,295.52 142.51,295.27 C153.374962,293.672989 164.415038,293.672989 175.28,295.27 C175.28,295.43 175.28,295.59 175.35,295.74 C175.18,294.42 174.72,292.98 175.96,291.74 C164.801115,288.653008 153.018557,288.615022 141.84,291.63 C143.25,292.81 142.55,294.47 142.41,296 L142.41,296 Z M175.4,296.48 L175.4,296.36 L175.4,296.48 Z M175.39,296.08 L175.39,295.79 C175.37,295.89 175.38,296 175.39,296.08 Z M144.29,298.74 C145.013883,299.009912 145.666986,299.440754 146.2,300 C154.718074,299.134552 163.301926,299.134552 171.82,300 C172.356201,299.430426 173.016696,298.992378 173.75,298.72 C174.425046,298.502814 174.993018,298.038434 175.34,297.42 C164.505017,296.128494 153.554983,296.128494 142.72,297.42 C143.046707,298.051488 143.611789,298.526588 144.29,298.74 L144.29,298.74 Z" id="Shape" fill="#1F2B56" fill-rule="nonzero"></path>
            <path d="M409.64,282.25 C414.752315,278.849574 420.750124,277.024153 426.89,277 L427,277 C433.136808,277.015258 439.134367,278.830172 444.25,282.22 C444.25,282.22 447.58,289.74 445.19,290.79 C440.44,292.87 445.98,296.95 441.69,298.72 C437.92,300.28 439.69,302.72 437.5,303.2 C435.31,303.68 433.1,304.2 426.73,304.2 C420.36,304.2 418.57,303.72 416.41,303.2 C414.25,302.68 415.99,300.28 412.22,298.72 C407.94,296.95 413.22,293.32 408.72,290.79 C407,289.86 409.64,282.25 409.64,282.25 L409.64,282.25 Z" id="Path" fill="#3B446B" fill-rule="nonzero"></path>
            <path d="M409.64,282.25 C414.752568,278.85011 420.750212,277.02474 426.89,277 L427,277 C433.13672,277.015845 439.134114,278.830708 444.25,282.22 C444.25,282.22 447.15,288.76 445.59,290.49 C433.764181,285.202202 420.245819,285.202202 408.42,290.49 C407.39,288.74 409.64,282.25 409.64,282.25 L409.64,282.25 Z" id="Path" fill="#1F2B56" fill-rule="nonzero"></path>
            <path d="M405.36,229.42 C405.95,228.42 408.2,225.84 427.49,225.84 C439.9,225.84 445.83,228.53 445.83,228.53 L438.55,278.27 C418.48,279.18 408.55,285.99 408.55,285.99 C407.414976,285.830127 406.289861,285.606439 405.18,285.32 C404.1,284.98 403.49,284.51 402.82,282.22 C402.15,279.93 399.99,267.65 400.73,253.83 C401.19,239.2 404.75,230.42 405.36,229.42 Z" id="Path" fill="#EFB000" fill-rule="nonzero"></path>
            <path d="M409.09,228.31 C409.19,227.4 409.37,226.31 409.49,225.48 C409.589471,224.200196 410.346901,223.064051 411.49,222.48 C415.6,220.17 424.31,220.03 426.6,220.03 C428.89,220.03 437.6,220.17 441.71,222.48 C442.853099,223.064051 443.610529,224.200196 443.71,225.48 C443.84,226.34 444.01,227.39 444.11,228.31 C444.377889,229.297307 444.077704,230.351803 443.33,231.05 C439.8,233.79 431.33,234.52 426.64,234.52 C421.95,234.52 413.47,233.79 409.95,231.05 C409.173327,230.369466 408.841515,229.312299 409.09,228.31 L409.09,228.31 Z" id="Path" fill="#EFB000" fill-rule="nonzero"></path>
            <path d="M418.15,247.48 C418.82,243.33 418.71,241.42 423.7,239.74 C424.386732,239.510401 425.055274,239.229613 425.7,238.9 C425.584036,239.183207 425.487153,239.473856 425.41,239.77 C425.33,240.07 425.26,240.39 425.2,240.72 L425.2,240.82 C425.14,241.17 425.08,241.54 425.01,241.93 C424.94,242.32 424.89,242.72 424.82,243.14 C424.75,243.56 424.73,243.73 424.69,244.03 L424.69,244.34 C424.69,244.44 424.64,244.76 424.62,244.98 C424.6,245.2 424.62,245.24 424.62,245.37 C424.62,245.5 424.62,245.76 424.57,245.97 C424.52,246.18 424.57,246.29 424.57,246.45 L424.57,256.37 C424.57,256.53 424.57,256.9 424.62,257.16 L424.62,257.6 C424.62,257.88 424.62,258.15 424.68,258.43 L424.68,258.84 C424.68,259.126667 424.706667,259.413333 424.76,259.7 L424.76,260.07 C424.76,260.37 424.79,260.67 424.85,260.97 L424.85,261.3 C424.85,261.613333 424.883333,261.926667 424.95,262.24 L424.95,262.51 C424.99,262.836667 425.03,263.17 425.07,263.51 L425.07,263.74 C425.11,264.073333 425.153333,264.406667 425.2,264.74 L425.2,264.93 C425.246667,265.276667 425.293333,265.61 425.34,265.93 L425.34,266.07 C425.393333,266.423333 425.446667,266.756667 425.5,267.07 L425.5,267.16 C425.553333,267.513333 425.61,267.846667 425.67,268.16 L425.67,268.24 C425.73,268.593333 425.79,268.926667 425.85,269.24 C425.916667,269.586667 425.983333,269.92 426.05,270.24 C426.484858,272.549906 427.137781,274.813371 428,277 L428.13,277.31 C428.402722,277.951217 428.737658,278.564149 429.13,279.14 C426.469069,279.544083 423.831897,280.091547 421.23,280.78 C420.97,279.9 420.7,278.85 420.43,277.65 C418.66,269.64 416.89,255.24 418.15,247.48 L418.15,247.48 Z" id="Path" fill="#E2A100" fill-rule="nonzero"></path>
            <path d="M448.9,221.93 C450.54,225.76 454.36,240.03 454.36,256.05 C454.36,264.92 453.85,288.89 445.66,290.41 C445.66,290.41 444.28,287 439.46,284 C433.72,280.43 430.75,283.1 428.16,277.36 C425.57,271.62 423.25,252.47 424.77,243.16 C425.44,239.01 425.33,237.1 430.32,235.42 C436.66,233.28 441.16,226.34 443.55,222.18 C445.49,218.81 447.82,219.41 448.9,221.93 L448.9,221.93 Z" id="Path" fill="#FFC100" fill-rule="nonzero"></path>
            <path d="M443.4,296 C443.4,295.76 443.34,295.52 443.3,295.27 C432.435038,293.672989 421.394962,293.672989 410.53,295.27 C410.53,295.43 410.53,295.59 410.46,295.74 C410.63,294.42 411.09,292.98 409.85,291.74 C421.008885,288.653008 432.791443,288.615022 443.97,291.63 C442.55,292.81 443.25,294.47 443.4,296 L443.4,296 Z M410.4,296.48 L410.4,296.36 L410.4,296.48 Z M410.42,296.08 L410.42,295.79 C410.43,295.89 410.42,296 410.42,296.08 Z M441.51,298.74 C440.786117,299.009912 440.133014,299.440754 439.6,300 C431.088541,299.135906 422.511459,299.135906 414,300 C413.463799,299.430426 412.803304,298.992378 412.07,298.72 C411.394954,298.502814 410.826982,298.038434 410.48,297.42 C421.314983,296.128494 432.265017,296.128494 443.1,297.42 C442.768662,298.055582 442.195693,298.531254 441.51,298.74 L441.51,298.74 Z" id="Shape" fill="#1F2B56" fill-rule="nonzero"></path>
            <ellipse id="Oval" fill="#FED358" fill-rule="nonzero" transform="translate(446.823005, 250.110389) rotate(-3.430000) translate(-446.823005, -250.110389) " cx="446.823005" cy="250.110389" rx="3.58" ry="17.75"></ellipse>
            <ellipse id="Oval" fill="#FED358" fill-rule="nonzero" transform="translate(138.658694, 250.101230) rotate(-86.570000) translate(-138.658694, -250.101230) " cx="138.658694" cy="250.10123" rx="17.75" ry="3.58"></ellipse>
            <path d="M427.42,212.41 C426.867715,212.41 426.42,211.962285 426.42,211.41 L426.42,207.41 C426.42,206.857715 426.867715,206.41 427.42,206.41 C427.972285,206.41 428.42,206.857715 428.42,207.41 L428.42,211.41 C428.42,211.962285 427.972285,212.41 427.42,212.41 Z M427.42,202.41 C426.867715,202.41 426.42,201.962285 426.42,201.41 L426.42,197.41 C426.42,196.857715 426.867715,196.41 427.42,196.41 C427.972285,196.41 428.42,196.857715 428.42,197.41 L428.42,201.41 C428.42,201.962285 427.972285,202.41 427.42,202.41 Z M427.42,192.41 C426.867715,192.41 426.42,191.962285 426.42,191.41 L426.42,187.41 C426.42,186.857715 426.867715,186.41 427.42,186.41 C427.972285,186.41 428.42,186.857715 428.42,187.41 L428.42,191.41 C428.42,191.962285 427.972285,192.41 427.42,192.41 Z M427.42,182.41 C426.867715,182.41 426.42,181.962285 426.42,181.41 L426.42,177.41 C426.42,176.857715 426.867715,176.41 427.42,176.41 C427.972285,176.41 428.42,176.857715 428.42,177.41 L428.42,181.41 C428.42,181.962285 427.972285,182.41 427.42,182.41 Z M427.42,172.41 C426.867715,172.41 426.42,171.962285 426.42,171.41 L426.42,167.41 C426.42,166.857715 426.867715,166.41 427.42,166.41 C427.972285,166.41 428.42,166.857715 428.42,167.41 L428.42,171.41 C428.42,171.962285 427.972285,172.41 427.42,172.41 Z M402.06,139.92 L398.06,139.92 C397.507715,139.92 397.06,139.472285 397.06,138.92 C397.06,138.367715 397.507715,137.92 398.06,137.92 L402.06,137.92 C402.612285,137.92 403.06,138.367715 403.06,138.92 C403.06,139.472285 402.612285,139.92 402.06,139.92 Z M392.06,139.92 L388.06,139.92 C387.507715,139.92 387.06,139.472285 387.06,138.92 C387.06,138.367715 387.507715,137.92 388.06,137.92 L392.06,137.92 C392.612285,137.92 393.06,138.367715 393.06,138.92 C393.06,139.472285 392.612285,139.92 392.06,139.92 Z M382.06,139.92 L378.06,139.92 C377.507715,139.92 377.06,139.472285 377.06,138.92 C377.06,138.367715 377.507715,137.92 378.06,137.92 L382.06,137.92 C382.612285,137.92 383.06,138.367715 383.06,138.92 C383.06,139.472285 382.612285,139.92 382.06,139.92 Z M372.06,139.92 L368.06,139.92 C367.507715,139.92 367.06,139.472285 367.06,138.92 C367.06,138.367715 367.507715,137.92 368.06,137.92 L372.06,137.92 C372.612285,137.92 373.06,138.367715 373.06,138.92 C373.06,139.472285 372.612285,139.92 372.06,139.92 Z" id="Shape" fill="#F07580" fill-rule="nonzero"></path>
            <ellipse id="Oval" fill="#E2A100" fill-rule="nonzero" cx="152.12" cy="250.1" rx="4.33" ry="6.59"></ellipse>
            <polygon id="Path" fill="#E82546" fill-rule="nonzero" points="151.78 252.93 141.83 252.93 143.09 250.11 141.83 247.26 151.78 247.26"></polygon>
            <ellipse id="Oval" fill="#F07580" fill-rule="nonzero" cx="141.83" cy="250.1" rx="1.87" ry="2.84"></ellipse>
            <ellipse id="Oval" fill="#E82546" fill-rule="nonzero" cx="151.83" cy="250.1" rx="1.87" ry="2.84"></ellipse>
            <ellipse id="Oval" fill="#E08500" fill-rule="nonzero" cx="245.11" cy="265.11" rx="4.37" ry="6.65"></ellipse>
            <path d="M22.42,491.08 C21.3,491.08 20.19,491.08 19.07,491 C9.72,490.54 2.84,487.28 0.67,482.28 C-0.616028654,479.223468 0.0188715938,475.696244 2.29,473.28 C7.55,467.06 22.22,462.67 47.6,468.97 C53.28,470.38 59.02,471.97 65.12,473.64 C68.155997,471.109482 70.9819141,468.337074 73.57,465.35 C90.68,445.66 107.85,405.35 92.57,325.16 C86.73,294.62 95.11,276.61 103.16,266.87 C112.639692,255.608761 126.599968,249.096892 141.32,249.07 C141.872285,249.07 142.32,249.517715 142.32,250.07 C142.32,250.622285 141.872285,251.07 141.32,251.07 C127.194323,251.085773 113.794894,257.331766 104.7,268.14 C96.92,277.55 88.84,295.01 94.53,324.78 C110.01,405.78 92.53,446.63 75.12,466.66 C72.7543726,469.385323 70.1907359,471.932247 67.45,474.28 C73.73,476.06 80.45,478.02 87.86,480.19 C95.27,482.36 103.93,484.89 113.71,487.69 C114.070419,487.772979 114.35561,488.048112 114.451469,488.405321 C114.547328,488.762531 114.438202,489.143481 114.16775,489.395757 C113.897299,489.648034 113.509689,489.730438 113.16,489.61 C103.38,486.81 94.83,484.31 87.3,482.11 C79.3,479.78 72.23,477.71 65.58,475.83 C53.3512976,485.682752 38.1240631,491.063088 22.42,491.08 Z M25.28,467.95 C13.92,467.95 6.85,471.01 3.82,474.59 C2.04694207,476.419166 1.53195445,479.127765 2.51,481.48 C3.95,484.79 9.08,488.48 19.18,489 C35.0310187,489.85722 50.6577109,484.956121 63.18,475.2 C57.6,473.64 52.32,472.2 47.1,470.93 C39.97383,469.057187 32.6472862,468.053229 25.28,467.94 L25.28,467.95 Z" id="Shape" fill="#DDE7ED" fill-rule="nonzero"></path>
            <polygon id="Path" fill="#E82546" fill-rule="nonzero" points="244.77 267.95 234.82 267.95 236.08 265.13 234.82 262.28 244.77 262.28"></polygon>
            <ellipse id="Oval" fill="#F07580" fill-rule="nonzero" cx="234.82" cy="265.11" rx="1.87" ry="2.84"></ellipse>
            <ellipse id="Oval" fill="#E82546" fill-rule="nonzero" cx="244.81" cy="265.11" rx="1.87" ry="2.84"></ellipse>
            <ellipse id="Oval" fill="#E2A100" fill-rule="nonzero" cx="317.01" cy="137.79" rx="4.2" ry="6.38"></ellipse>
            <polygon id="Path" fill="#E82546" fill-rule="nonzero" points="317.35 134.96 327.3 134.96 326.03 137.78 327.3 140.63 317.35 140.63"></polygon>
            <ellipse id="Oval" fill="#F07580" fill-rule="nonzero" cx="327.3" cy="137.79" rx="1.87" ry="2.84"></ellipse>
            <ellipse id="Oval" fill="#E82546" fill-rule="nonzero" cx="317.3" cy="137.79" rx="1.87" ry="2.84"></ellipse>
            <path d="M98,498.13 C97.9137026,498.141315 97.8262974,498.141315 97.74,498.13 C92.16,496.61 75.74,492.22 65.92,489.6 L59,487.72 C38.68,482.25 15,469.88 17.6,442 C18.66,430.62 25.11,419.77 35.77,411.46 C53,398 78.23,392.64 105,396.76 C126.31,400.05 130.16,400.91 137.14,402.47 L139.64,403.03 C168.73,409.48 188.08,407.49 198.8,396.94 C215.25,380.75 209.57,344.94 202.35,309.66 C199.17,294.12 201.06,282.22 207.96,274.3 C217.69,263.15 233.66,264.07 234.33,264.11 C234.882285,264.145899 235.300899,264.622715 235.267147,265.175 C235.229101,265.727285 234.752285,266.145899 234.2,266.11 C234.04,266.11 218.52,265.23 209.46,275.63 C202.99,283.05 201.26,294.37 204.31,309.26 C211.64,345.09 217.37,381.48 200.2,398.37 C188.96,409.43 169,411.6 139.2,404.99 L136.69,404.43 C129.75,402.87 125.93,402.02 104.69,398.74 C78.49,394.74 53.81,399.91 36.99,413.03 C26.77,421.03 20.59,431.35 19.59,442.18 C17.13,468.67 39.94,480.52 59.52,485.79 L66.43,487.64 C76.24,490.26 92.67,494.64 98.26,496.18 C98.6172656,496.226445 98.9226147,496.45996 99.0610254,496.792583 C99.1994361,497.125207 99.1498803,497.506404 98.9310254,497.792583 C98.7121705,498.078762 98.3572656,498.226445 98,498.18 L98,498.13 Z M562.31,498.36 C561.757715,498.431797 561.251797,498.042285 561.18,497.49 C561.108203,496.937715 561.497715,496.431797 562.05,496.36 L616.63,481.59 C652.1,472.04 657.92,452.59 656.56,437.98 C655.56,427.32 649.56,417.11 639.56,409.24 C622.84,396.06 598.02,390.71 571.47,394.54 C537.3,399.47 504.35,407.14 488.47,410.82 C484.19,411.82 481.1,412.53 479.28,412.9 C444.58,420 412,414 387.47,396.08 C368.17,381.95 356.22,361.76 353.82,339.24 C350.08,304.18 362.39,284.3 374.29,265.08 C384.9,247.95 395.87,230.24 396.02,201.46 C396.12,182.93 390.75,168.08 380.02,157.34 C368.13,145.34 349.62,138.8 327.89,138.8 C327.337715,138.8 326.89,138.352285 326.89,137.8 C326.89,137.247715 327.337715,136.8 327.89,136.8 C350.16,136.8 369.17,143.59 381.44,155.93 C392.52,167.07 398.08,182.39 397.98,201.48 C397.82,230.82 386.7,248.78 375.98,266.14 C363.72,285.94 352.13,304.65 355.8,339.03 C358.14,361.03 369.8,380.68 388.64,394.47 C412.64,412.07 444.73,417.94 478.9,410.99 C480.68,410.63 483.77,409.91 488.03,408.92 C503.9,405.23 536.91,397.55 571.16,392.61 C598.25,388.7 623.62,394.2 640.77,407.72 C651.19,415.93 657.5,426.63 658.55,437.84 C661.14,465.72 637.47,478.09 617.15,483.57 L562.57,498.34 C562.484578,498.357986 562.397168,498.36471 562.31,498.36 Z" id="Shape" fill="#DDE7ED" fill-rule="nonzero"></path>
            <path d="M375.31,516.85 L515,482.72 C518.424293,481.776789 520.825742,478.700821 520.91,475.15 L524.53,374.83 C524.75,369.54 520.22,365.43 515.31,366.47 L372,395 C368.311904,395.878893 365.734947,399.20937 365.81,403 L365.81,509 C365.81,514.18 370.46,518.07 375.31,516.85 Z" id="Path" fill="#24292E" fill-rule="nonzero"></path>
            <path d="M445.26,562.28 L589.34,522.56 C590.488908,522.23344 591.265508,521.163549 591.221899,519.97 L591.221899,515.34 L521.94,489.67 C521.380882,489.355929 520.724249,489.263144 520.1,489.41 L372.32,513.76 L372.32,519.42 C372.254966,520.336933 372.657461,521.224678 373.39,521.78 L426.1,558.94 C431.664354,562.866125 438.695404,564.091789 445.26,562.28 L445.26,562.28 Z" id="Path" fill="#24292E" fill-rule="nonzero"></path>
            <path d="M445.26,557.39 L589.34,517.67 C590.339864,517.393413 591.073954,516.54074 591.198853,515.510872 C591.323752,514.481003 590.814764,513.477574 589.91,512.97 C589.91,512.97 524.38,475.97 521.7,474.48 C519.89399,473.597984 517.842183,473.354729 515.88,473.79 L376.12,508.71 C374.235619,509.157492 372.787827,510.666881 372.419192,512.568262 C372.050557,514.469643 372.82938,516.410723 374.41,517.53 L426.1,554 C431.656301,557.943307 438.687984,559.18743 445.26,557.39 L445.26,557.39 Z" id="Path" fill="#2F363C" fill-rule="nonzero"></path>
            <path d="M508.3,481 L398.09,508.84 C397.431422,508.97357 396.920964,509.495387 396.801919,510.156745 C396.682875,510.818104 396.979334,511.485166 397.55,511.84 L432.95,535.92 C433.735212,536.452602 434.712129,536.620281 435.63,536.38 L547.84,506.92 C548.480108,506.750532 548.955505,506.212753 549.045167,505.55669 C549.134829,504.900627 548.821163,504.255009 548.25,503.92 L509.75,481.28 C509.320085,481.005105 508.801355,480.904936 508.3,481 L508.3,481 Z M535,526 L521.82,518.07 C520.680986,517.386817 519.314496,517.192119 518.03,517.53 L480.39,527.43 C479.764972,527.592419 479.293448,528.10652 479.185532,528.743226 C479.077615,529.379931 479.3534,530.020695 479.89,530.38 L492.89,539.18 C493.681918,539.715046 494.66736,539.879287 495.59,539.63 L534.59,529 C535.230108,528.830532 535.705505,528.292753 535.795167,527.63669 C535.884829,526.980627 535.571163,526.335009 535,526 L535,526 Z" id="Shape" fill="#8F979F" fill-rule="nonzero" opacity="0.15"></path>
            <path d="M513.73,381.2 L511.21,464 C511.172989,464.876773 510.568749,465.627005 509.72,465.85 L379,498.25 C378.412412,498.382592 377.796359,498.243292 377.32298,497.870796 C376.849601,497.498301 376.56932,496.93229 376.56,496.33 L377.06,408.33 C377.079994,407.407363 377.728681,406.618197 378.63,406.42 L511.4,379.24 C511.977894,379.143311 512.569121,379.304898 513.017502,379.682077 C513.465883,380.059256 513.726314,380.614085 513.73,381.2 L513.73,381.2 Z" id="Path" fill="#444D56" fill-rule="nonzero"></path>
            <path d="M283.5,516.85 L143.83,482.72 C140.405707,481.776789 138.004258,478.700821 137.92,475.15 L134.3,374.83 C134.08,369.54 138.61,365.43 143.52,366.47 L286.81,395 C290.498096,395.878893 293.075053,399.20937 293,403 L293,509 C293,514.18 288.35,518.07 283.5,516.85 Z" id="Path" fill="#24292E" fill-rule="nonzero"></path>
            <path d="M213.55,562.28 L69.47,522.56 C68.3362166,522.232375 67.5672827,521.179717 67.5989948,520 L67.5989948,515.37 L136.88,489.7 C137.439118,489.385929 138.095751,489.293144 138.72,489.44 L286.48,513.78 L286.48,519.44 C286.545034,520.356933 286.142539,521.244678 285.41,521.8 L232.7,558.96 C227.134954,562.876217 220.108547,564.094372 213.55,562.28 Z" id="Path" fill="#CBCFD4" fill-rule="nonzero"></path>
            <path d="M213.55,557.39 L69.47,517.67 C68.4701361,517.393413 67.7360461,516.54074 67.6111472,515.510872 C67.4862483,514.481003 67.9952364,513.477574 68.9,512.97 C68.9,512.97 134.43,475.97 137.11,474.48 C138.91601,473.597984 140.967817,473.354729 142.93,473.79 L282.69,508.71 C284.574381,509.157492 286.022173,510.666881 286.390808,512.568262 C286.759443,514.469643 285.98062,516.410723 284.4,517.53 L232.71,554 C227.153699,557.943307 220.122016,559.18743 213.55,557.39 L213.55,557.39 Z" id="Path" fill="#F4F5F6" fill-rule="nonzero"></path>
            <path d="M150.51,481 L260.73,508.83 C261.388578,508.96357 261.899036,509.485387 262.018081,510.146745 C262.137125,510.808104 261.840666,511.475166 261.27,511.83 L225.87,535.91 C225.084788,536.442602 224.107871,536.610281 223.19,536.37 L111,506.88 C110.359892,506.710532 109.884495,506.172753 109.794833,505.51669 C109.705171,504.860627 110.018837,504.215009 110.59,503.88 L149.09,481.24 C149.51711,480.986447 150.023286,480.900896 150.51,481 L150.51,481 Z M125.44,525.71 L138.62,517.78 C139.759014,517.096817 141.125504,516.902119 142.41,517.24 L180.05,527.14 C180.675028,527.302419 181.146552,527.81652 181.254468,528.453226 C181.362385,529.089931 181.0866,529.730695 180.55,530.09 L167.55,538.89 C166.758082,539.425046 165.77264,539.589287 164.85,539.34 L125.85,528.71 C125.209892,528.540532 124.734495,528.002753 124.644833,527.34669 C124.555171,526.690627 124.868837,526.045009 125.44,525.71 L125.44,525.71 Z" id="Shape" fill="#8F979F" fill-rule="nonzero" opacity="0.15"></path>
            <path d="M145.079871,381.2 L147.6,464 C147.637011,464.876773 148.241251,465.627005 149.09,465.85 L279.83,498.28 C280.417588,498.412592 281.033641,498.273292 281.50702,497.900796 C281.980399,497.528301 282.26068,496.96229 282.27,496.36 L281.77,408.36 C281.750006,407.437363 281.101319,406.648197 280.2,406.45 L147.44,379.21 C146.852329,379.102423 146.247337,379.2632 145.790603,379.648328 C145.333868,380.033456 145.073222,380.602602 145.079871,381.2 L145.079871,381.2 Z" id="Path" fill="#444D56" fill-rule="nonzero"></path>
            <path d="M318.78,543.19 C313.600898,543.101286 308.456282,542.327912 303.48,540.89 C289.29,537.02 271.14,531.72 270.96,531.67 C270.429807,531.51536 270.12536,530.960193 270.28,530.43 C270.43464,529.899807 270.989807,529.59536 271.52,529.75 C271.7,529.8 289.83,535.09 304.01,538.96 C316.84,542.46 326.7,541.85 333.33,537.16 C339.13,533.04 342.44,525.82 343.17,515.69 C343.20866,515.137715 343.687715,514.72134 344.24,514.76 C344.792285,514.79866 345.20866,515.277715 345.17,515.83 C344.4,526.59 340.81,534.31 334.49,538.83 C330.34,541.72 325.08,543.19 318.78,543.19 L318.78,543.19 Z" id="Path" fill="#DDE7ED" fill-rule="nonzero"></path>
            <path d="M521.23,465.61 L524.51,374.82 C524.73,369.53 520.2,365.42 515.29,366.46 L372,395 C368.311904,395.878893 365.734947,399.20937 365.81,403 L365.81,503 L521.23,465.61 Z M137.61,465.61 L134.33,374.82 C134.11,369.53 138.64,365.42 143.55,366.46 L286.84,395 C290.528096,395.878893 293.105053,399.20937 293.03,403 L293.03,503 L137.61,465.61 Z" id="Shape" fill="#24292E" fill-rule="nonzero"></path>
            <path d="M145.109871,381.2 L147.63,464 C147.667011,464.876773 148.271251,465.627005 149.12,465.85 L279.86,498.28 C280.447588,498.412592 281.063641,498.273292 281.53702,497.900796 C282.010399,497.528301 282.29068,496.96229 282.3,496.36 L281.8,408.36 C281.780006,407.437363 281.131319,406.648197 280.23,406.45 L147.47,379.21 C146.882329,379.102423 146.277337,379.2632 145.820603,379.648328 C145.363868,380.033456 145.103222,380.602602 145.109871,381.2 L145.109871,381.2 Z" id="Path" fill="#3B446B" fill-rule="nonzero"></path>
            <path d="M513.89,381.2 L511.37,464 C511.332989,464.876773 510.728749,465.627005 509.88,465.85 L379.14,498.25 C378.552412,498.382592 377.936359,498.243292 377.46298,497.870796 C376.989601,497.498301 376.70932,496.93229 376.7,496.33 L377.2,408.33 C377.219994,407.407363 377.868681,406.618197 378.77,406.42 L511.54,379.24 C512.120966,379.136731 512.717884,379.295282 513.171032,379.673226 C513.624181,380.051171 513.887305,380.609933 513.89,381.2 Z" id="Path" fill="#2F363C" fill-rule="nonzero"></path>
            <path d="M149,528.22 C152.88,527.85 154.85,525.91 153.69,524.22 C151.69,521.39 142.11,520.16 138.03,519.71 C129.8,518.8 131.03,511.71 137.67,509.57 C144.31,507.43 151.12,511.99 158.23,511.23 C161.52,510.88 161.48,510.17 164.73,509.42 C167.98,508.67 168.13,506.02 165.49,505.26 C162.35,504.36 150.84,501.26 150.84,501.26 L129.66,498.72 C129.66,498.72 111.73,515.43 102.88,522.92 C100.49,524.92 97.95,527.34 95.49,529.78 L112.4,534.44 C116.67,531.12 121.4,527.85 123.75,527.44 C128.08,526.71 143.54,528.74 149,528.22 L149,528.22 Z M229.46,516.5 C223.25,510.13 210.11,511.28 207.46,512.42 C205.79,513.14 206.46,515.25 209.27,517.3 C213.03,520.02 215.96,519.12 216.43,520.47 C216.9,521.82 221.08,538.55 221.31,544.05 C221.54,549.55 210.2,534.53 210.2,534.53 C210.2,534.53 205.71,528.35 206.2,535.38 C206.53,539.77 210.06,556.3 214.59,559.93 C216.307845,561.213988 218.18311,562.272606 220.17,563.08 C224.651492,562.958665 228.99703,561.514791 232.66,558.93 L244.54,550.55 L244.4,550.06 C244.4,550.06 240.33,527.65 229.46,516.5 Z" id="Shape" fill="#24292E" fill-rule="nonzero" opacity="0.15"></path>
            <path d="M281.63,611.35 C281.63,611.35 260.53,575.35 256.05,563.51 C251.92,552.57 257.05,546.99 251.95,530.37 C249.6,522.68 243.9,520.37 243.9,520.37 C243.9,520.37 241.53,516.67 239.1,515.26 C237.521568,514.386146 235.790388,513.822664 234,513.6 C232.810292,511.741377 231.243051,510.153693 229.4,508.94 C227.23,507.64 223.65,507.74 223.65,507.74 L220.12,498.95 C217.065933,500.88869 215.538658,504.521451 216.29,508.06 L205.84,508.63 C206.53,512.69 213.03,515.51 218.54,515.78 C218.54,515.78 222.41,529.9 222.78,531.47 C223.246239,534.530808 223.466943,537.624002 223.44,540.72 C223.28,542.26 221.25,542.66 220.2,541.65 C218.86,540.35 217.27,535.29 214.13,532.33 C211.983936,530.311267 209.056843,529.341667 206.13,529.68 C212.36,543.37 212.43,543.29 215.46,550.4 C216.9,553.78 219.3,556.76 226.85,561.06 C236.09,566.33 239.6,571.21 243.03,581.06 C246.63,591.38 246.37,593.45 248.61,599.52 C256.14,620 281.63,611.35 281.63,611.35 L281.63,611.35 Z" id="Path" fill="#6D472E" fill-rule="nonzero"></path>
            <path d="M231.24,528.84 C231.082859,528.837065 230.943741,528.737695 230.89,528.59 L224.72,511.65 C224.656648,511.519609 224.673003,511.364533 224.762161,511.250226 C224.851319,511.135919 224.997746,511.082298 225.139638,511.111995 C225.28153,511.141692 225.394164,511.249533 225.43,511.39 L231.6,528.33 C231.667956,528.523141 231.570672,528.735397 231.38,528.81 L231.24,528.84 Z M238.46,525.390017 C238.304489,525.391506 238.164634,525.295606 238.11,525.15 L234.7,516.68 C234.649983,516.554957 234.670475,516.412729 234.753756,516.306891 C234.837038,516.201053 234.970457,516.147686 235.103756,516.166891 C235.237055,516.186096 235.349983,516.274957 235.4,516.4 L238.81,524.87 C238.849117,524.962649 238.848835,525.067229 238.80922,525.159666 C238.769604,525.252102 238.694068,525.32443 238.6,525.36 L238.46,525.390017 Z M246.6,527.39 C246.4478,527.390344 246.310079,527.299841 246.25,527.16 L244.75,523.49 C244.699983,523.366743 244.719522,523.226166 244.801256,523.121221 C244.882991,523.016277 245.014504,522.962909 245.146256,522.981221 C245.278008,522.999533 245.389983,523.086743 245.44,523.21 L246.94,526.88 C246.979117,526.972649 246.978835,527.077229 246.93922,527.169666 C246.899604,527.262102 246.824068,527.33443 246.73,527.37 C246.688209,527.384377 246.64418,527.391151 246.6,527.39 Z" id="Shape" fill="#301C0E" fill-rule="nonzero"></path>
            <path d="M73.92,536.45 C79.69,534.08 88.92,527.23 96.92,524.32 C104.76,521.51 108.34,522.52 117.16,523.32 C122.16,523.76 128.1,522.46 143.33,522.32 C148.63,522.26 154.63,522.23 154.63,522.23 C154.63,522.23 154.92,515.02 143.42,514.14 C137.42,513.68 135.82,513.67 132.75,512.63 C130.02,511.71 128.24,510.08 129.66,508.15 C130.75,506.67 138.3,502.38 138.3,502.38 C138.3,502.38 145.44,506.38 150.01,508.28 C154.58,510.18 156.7,507.98 156.7,507.98 C159.795226,508.866369 163.128709,508.086916 165.51,505.92 L158.72,502.92 C159.7974,503.337417 160.899487,503.688081 162.02,503.97 C169.65,505.91 171.62,501.75 171.62,501.75 L161.43,497.16 C161.43,497.16 165.14,497.8 166.53,497.95 C173.03,498.63 175.53,494.26 175.53,494.26 C175.53,494.26 152.04,487.17 148.39,487.12 C144.74,487.07 138.18,488.42 137.31,488.33 C135.12,488.11 132.09,486.61 128.93,487.33 C125.77,488.05 115.06,494.73 111.23,496.8 C97.23,504.37 39.36,525.91 39.36,525.91 C39.36,525.91 53.07,545 73.92,536.45 Z" id="Path" fill="#6D472E" fill-rule="nonzero"></path>
            <path d="M140.53,501.22 C140.357961,501.232035 140.200423,501.123619 140.15021,500.958632 C140.099996,500.793645 140.170426,500.615847 140.32,500.53 C141.12,499.99 148.2,495.27 149.04,494.94 C149.88,494.61 157.09,495.85 159.28,496.24 C159.484345,496.275899 159.620898,496.470655 159.585,496.675 C159.549101,496.879345 159.354345,497.015898 159.15,496.98 C154.75,496.2 149.87,495.49 149.31,495.65 C148.75,495.81 143.87,499.07 140.74,501.16 C140.677632,501.200675 140.604443,501.221586 140.53,501.22 L140.53,501.22 Z" id="Path" fill="#301C0E" fill-rule="nonzero"></path>
            <path d="M156.16,502 C156.110524,502.010241 156.059476,502.010241 156.01,502 L145.83,497.58 C145.639462,497.497157 145.552157,497.275538 145.635,497.085 C145.717843,496.894462 145.939462,496.807157 146.13,496.89 L156.31,501.31 C156.48916,501.368624 156.595603,501.552571 156.557156,501.737116 C156.518709,501.921661 156.347665,502.047798 156.16,502.03 L156.16,502 Z M152.59,506 C152.53406,506.012838 152.47594,506.012838 152.42,506 L141.6,500.39 C141.414985,500.296112 141.341112,500.070015 141.435,499.885 C141.528888,499.699985 141.754985,499.626112 141.94,499.72 L152.76,505.33 C152.926807,505.400334 153.018228,505.581036 152.976075,505.757088 C152.933921,505.933141 152.770573,506.052841 152.59,506.04 L152.59,506 Z" id="Shape" fill="#301C0E" fill-rule="nonzero"></path>
            <path d="M231.92,486.35 L195.82,477.42 L195.82,473.42 C195.820366,472.584379 196.204805,471.7953 196.862614,471.279984 C197.520422,470.764668 198.37859,470.580311 199.19,470.78 L229.85,478.37 C231.065144,478.669048 231.919451,479.758599 231.92,481.01 L231.92,486.35 Z" id="Path" fill="#FFFFFF" fill-rule="nonzero" opacity="0.2"></path>
            <path d="M213.68,478.58 C213.70792,478.779208 213.630629,478.978658 213.475764,479.107033 C213.320899,479.235407 213.110576,479.274374 212.92,479.21 C212.462704,479.07849 212.130603,478.683132 212.08,478.21 C212.05208,478.010792 212.129371,477.811342 212.284236,477.682967 C212.439101,477.554593 212.649424,477.515626 212.84,477.58 C213.297296,477.71151 213.629397,478.106868 213.68,478.58 L213.68,478.58 Z" id="Path" fill="#2F363C"></path>
            <path d="M246.59,467.4 L179.42,451.21 C178.367662,450.897831 177.626389,449.956214 177.57,448.86 L176.44,403.33 C176.44,402.25 248.24,416.94 248.25,418.08 L248.55,465.88 C248.575966,466.37398 248.358337,466.849355 247.967445,467.152495 C247.576554,467.455636 247.061972,467.548098 246.59,467.4 L246.59,467.4 Z" id="Path" fill="#FFFFFF" fill-rule="nonzero"></path>
            <path d="M203.31,457 L179.42,451.24 C178.367662,450.927831 177.626389,449.986214 177.57,448.89 L176.57,403.36 L202.57,408.8 L203.31,457 Z" id="Path" fill="#EDEEEF" fill-rule="nonzero"></path>
            <path d="M198.79,443.67 L181.22,439.53 C180.771234,439.402441 180.458631,438.996463 180.45,438.53 L179.85,412.53 C179.843159,412.224036 179.9768,411.931784 180.212704,411.736822 C180.448608,411.54186 180.7608,411.465655 181.06,411.53 L198.76,415.32 C199.21864,415.43715 199.542184,415.846699 199.55,416.32 L200.02,442.65 C200.034787,442.963795 199.901259,443.266301 199.659444,443.46683 C199.41763,443.667359 199.095639,443.742601 198.79,443.67 L198.79,443.67 Z" id="Path" fill="#FFFFFF" fill-rule="nonzero"></path>
            <polygon id="Path" fill="#EDEEEF" fill-rule="nonzero" points="214.21 425.61 205.77 423.76 205.67 416.91 214.12 418.72 214.21 425.61"></polygon>
            <polygon id="Path" fill="#CDFFD5" fill-rule="nonzero" points="244.85 432.3 214.21 425.61 214.12 418.72 244.8 425.28"></polygon>
            <polygon id="Path" fill="#EDEEEF" fill-rule="nonzero" points="213.95 435.2 205.86 433.36 205.83 426.52 213.91 428.25 213.95 435.2"></polygon>
            <polygon id="Path" fill="#CDFFD5" fill-rule="nonzero" points="244.93 442.26 213.95 435.2 213.91 428.25 244.89 434.88"></polygon>
            <path d="M198.86,451.12 L181.31,446.92 C180.867058,446.815447 180.550583,446.424991 180.54,445.97 L180.49,443.81 C180.48165,443.499653 180.617917,443.203031 180.858808,443.007184 C181.0997,442.811337 181.417891,442.738482 181.72,442.81 L199.28,447 C199.741168,447.108812 200.062663,447.526339 200.05,448 L200.05,450.19 C200.035071,450.479344 199.895385,450.747991 199.667101,450.926398 C199.438817,451.104805 199.144376,451.175433 198.86,451.12 L198.86,451.12 Z" id="Path" fill="#FFFFFF" fill-rule="nonzero"></path>
            <path d="M248.28,418.35 L176.55,403.35 L176.43,398.01 C176.374411,397.536201 176.553801,397.065128 176.910461,396.748318 C177.267122,396.431508 177.756063,396.308924 178.22,396.42 L246.22,410.33 C247.359641,410.613844 248.174739,411.616416 248.22,412.79 L248.28,418.35 Z" id="Path" fill="#24292E" fill-rule="nonzero"></path>
            <path d="M272.3,414.78 L269.81,414.25 C269.544325,414.179485 269.335378,413.974337 269.26,413.71 C269.184622,413.445663 268.975675,413.240515 268.71,413.17 L267.71,412.95 C267.56148,412.914651 267.405001,412.952063 267.288531,413.050766 C267.17206,413.14947 267.10949,413.297693 267.12,413.45 L267.12,417.36 C267.126407,417.713956 267.367503,418.020434 267.71,418.11 L272.32,419.11 C272.46852,419.145349 272.624999,419.107937 272.741469,419.009234 C272.85794,418.91053 272.92051,418.762307 272.91,418.61 L272.91,415.53 C272.90122,415.170246 272.650421,414.861887 272.3,414.78 L272.3,414.78 Z" id="Path" fill="#79B8FF" fill-rule="nonzero"></path>
            <path d="M273.43,424.05 L266.54,422.57 C266.0868,422.453234 265.775199,422.037766 265.79,421.57 L265.79,421.27 C265.775073,421.075623 265.853951,420.885819 266.002246,420.759273 C266.150542,420.632728 266.35039,420.584685 266.54,420.63 L273.43,422.11 C273.887183,422.222816 274.203714,422.639303 274.19,423.11 L274.19,423.41 C274.205922,423.606607 274.125793,423.798778 273.974913,423.925835 C273.824034,424.052891 273.62103,424.099148 273.43,424.05 L273.43,424.05 Z" id="Path" fill="#FFFFFF" fill-rule="nonzero" opacity="0.2"></path>
            <path d="M272.3,429.26 L269.81,428.72 C269.545337,428.647715 269.337128,428.443292 269.26,428.18 C269.182872,427.916708 268.974663,427.712285 268.71,427.64 L267.71,427.42 C267.56093,427.379835 267.401641,427.415441 267.28386,427.515255 C267.16608,427.615069 267.104829,427.766361 267.12,427.92 L267.12,431.83 C267.129717,432.182768 267.369438,432.487497 267.71,432.58 L272.32,433.58 C272.46907,433.620165 272.628359,433.584559 272.74614,433.484745 C272.86392,433.384931 272.925171,433.233639 272.91,433.08 L272.91,430 C272.893434,429.645289 272.645031,429.343949 272.3,429.26 L272.3,429.26 Z" id="Path" fill="#79B8FF" fill-rule="nonzero"></path>
            <path d="M273.43,438.53 L266.55,437 C266.0968,436.883234 265.785199,436.467766 265.8,436 L265.8,435.7 C265.785073,435.505623 265.863951,435.315819 266.012246,435.189273 C266.160542,435.062728 266.36039,435.014685 266.55,435.06 L273.44,436.57 C273.897183,436.682816 274.213714,437.099303 274.2,437.57 L274.2,437.87 C274.224222,438.072206 274.145937,438.273163 273.991313,438.405698 C273.836689,438.538233 273.626123,438.584862 273.43,438.53 L273.43,438.53 Z" id="Path" fill="#FFFFFF" fill-rule="nonzero" opacity="0.2"></path>
            <path d="M406.18,429.77 L387.86,433.69 C387.682979,433.730075 387.497514,433.681873 387.362409,433.560675 C387.227303,433.439478 387.159315,433.260318 387.18,433.08 C387.197147,432.662248 387.472379,432.29926 387.87,432.17 L406.2,428.25 C406.377021,428.209925 406.562486,428.258127 406.697591,428.379325 C406.832697,428.500522 406.900685,428.679682 406.88,428.86 C406.86138,429.280404 406.581562,429.644167 406.18,429.77 L406.18,429.77 Z M415.89,427.69 L411.22,428.69 C411.042979,428.730075 410.857514,428.681873 410.722409,428.560675 C410.587303,428.439478 410.519315,428.260318 410.54,428.08 C410.55862,427.659596 410.838438,427.295833 411.24,427.17 L415.91,426.17 C416.087021,426.129925 416.272486,426.178127 416.407591,426.299325 C416.542697,426.420522 416.610685,426.599682 416.59,426.78 C416.57138,427.200404 416.291562,427.564167 415.89,427.69 L415.89,427.69 Z M422.86,426.2 L421.12,426.57 C420.942979,426.610075 420.757514,426.561873 420.622409,426.440675 C420.487303,426.319478 420.419315,426.140318 420.44,425.96 C420.45862,425.539596 420.738438,425.175833 421.14,425.05 L422.88,424.68 C423.057021,424.639925 423.242486,424.688127 423.377591,424.809325 C423.512697,424.930522 423.580685,425.109682 423.56,425.29 C423.54138,425.710404 423.261562,426.074167 422.86,426.2 L422.86,426.2 Z M435.18,423.57 L427.68,425.17 C427.501063,425.21095 427.313417,425.161604 427.177772,425.037927 C427.042127,424.914251 426.975707,424.731949 427,424.55 C427.01862,424.129596 427.298438,423.765833 427.7,423.64 L435.2,422 C435.378937,421.95905 435.566583,422.008396 435.702228,422.132073 C435.837873,422.255749 435.904293,422.438051 435.88,422.62 C435.878284,423.055263 435.595219,423.439424 435.18,423.57 L435.18,423.57 Z M402.3,435.28 L394.3,437 C394.122979,437.040075 393.937514,436.991873 393.802409,436.870675 C393.667303,436.749478 393.599315,436.570318 393.62,436.39 C393.64121,435.975977 393.91568,435.617973 394.31,435.49 L402.31,433.77 C402.487021,433.729925 402.672486,433.778127 402.807591,433.899325 C402.942697,434.020522 403.010685,434.199682 402.99,434.38 C402.96879,434.794023 402.69432,435.152027 402.3,435.28 L402.3,435.28 Z M422.32,431 L406.39,434.4 C406.212979,434.440075 406.027514,434.391873 405.892409,434.270675 C405.757303,434.149478 405.689315,433.970318 405.71,433.79 C405.72862,433.369596 406.008438,433.005833 406.41,432.88 L422.34,429.48 C422.517021,429.439925 422.702486,429.488127 422.837591,429.609325 C422.972697,429.730522 423.040685,429.909682 423.02,430.09 C423.00138,430.510404 422.721562,430.874167 422.32,431 L422.32,431 Z M408.71,438.58 L400.71,440.29 C400.532979,440.330075 400.347514,440.281873 400.212409,440.160675 C400.077303,440.039478 400.009315,439.860318 400.03,439.68 C400.05121,439.265977 400.32568,438.907973 400.72,438.78 L408.72,437.07 C408.897021,437.029925 409.082486,437.078127 409.217591,437.199325 C409.352697,437.320522 409.420685,437.499682 409.4,437.68 C409.37879,438.094023 409.10432,438.452027 408.71,438.58 Z M406.32,443.76 L395.75,446.06 C395.572979,446.100075 395.387514,446.051873 395.252409,445.930675 C395.117303,445.809478 395.049315,445.630318 395.07,445.45 C395.070319,445.017426 395.348736,444.634098 395.76,444.5 L406.33,442.2 C406.505543,442.163701 406.687853,442.213632 406.820403,442.334312 C406.952952,442.454991 407.019719,442.631832 407,442.81 C407.00111,443.239916 406.727312,443.622428 406.32,443.76 L406.32,443.76 Z M408.87,452.52 L401.38,454.11 C401.204457,454.146299 401.022147,454.096368 400.889597,453.975688 C400.757048,453.855009 400.690281,453.678168 400.71,453.5 C400.73121,453.085977 401.00568,452.727973 401.4,452.6 L408.89,451.01 C409.065543,450.973701 409.247853,451.023632 409.380403,451.144312 C409.512952,451.264991 409.579719,451.441832 409.56,451.62 C409.53879,452.034023 409.26432,452.392027 408.87,452.52 L408.87,452.52 Z M404.67,458.05 L400.45,458.94 C400.274457,458.976299 400.092147,458.926368 399.959597,458.805688 C399.827048,458.685009 399.760281,458.508168 399.78,458.33 C399.80121,457.915977 400.07568,457.557973 400.47,457.43 L404.69,456.54 C404.865543,456.503701 405.047853,456.553632 405.180403,456.674312 C405.312952,456.794991 405.379719,456.971832 405.36,457.15 C405.33879,457.564023 405.06432,457.922027 404.67,458.05 L404.67,458.05 Z M413.44,456.2 L408.31,457.29 C408.134457,457.326299 407.952147,457.276368 407.819597,457.155688 C407.687048,457.035009 407.620281,456.858168 407.64,456.68 C407.66121,456.265977 407.93568,455.907973 408.33,455.78 L413.46,454.69 C413.635543,454.653701 413.817853,454.703632 413.950403,454.824312 C414.082952,454.944991 414.149719,455.121832 414.13,455.3 C414.10879,455.714023 413.83432,456.072027 413.44,456.2 Z M426.73,453.38 L417.19,455.38 C417.014457,455.416299 416.832147,455.366368 416.699597,455.245688 C416.567048,455.125009 416.500281,454.948168 416.52,454.77 C416.54121,454.355977 416.81568,453.997973 417.21,453.87 L426.75,451.87 C426.925543,451.833701 427.107853,451.883632 427.240403,452.004312 C427.372952,452.124991 427.439719,452.301832 427.42,452.48 C427.39879,452.894023 427.12432,453.252027 426.73,453.38 Z M422.76,440.26 L410.52,442.86 C410.344457,442.896299 410.162147,442.846368 410.029597,442.725688 C409.897048,442.605009 409.830281,442.428168 409.85,442.25 C409.87121,441.835977 410.14568,441.477973 410.54,441.35 L422.78,438.74 C422.955543,438.703701 423.137853,438.753632 423.270403,438.874312 C423.402952,438.994991 423.469719,439.171832 423.45,439.35 C423.432853,439.767752 423.157621,440.13074 422.76,440.26 L422.76,440.26 Z M399.28,449.9 L392.63,451.35 C392.23,451.43 391.93,451.08 391.95,450.64 C391.966989,450.198314 392.271939,449.820177 392.7,449.71 L399.28,448.34 C399.454415,448.310256 399.632628,448.364689 399.760658,448.48681 C399.888689,448.608931 399.951475,448.784375 399.93,448.96 C399.961638,449.387281 399.690938,449.778755 399.28,449.9 L399.28,449.9 Z M412.09,447.19 L403.09,449.09 C402.914457,449.126299 402.732147,449.076368 402.599597,448.955688 C402.467048,448.835009 402.400281,448.658168 402.42,448.48 C402.44121,448.065977 402.71568,447.707973 403.11,447.58 L412.11,445.68 C412.285543,445.643701 412.467853,445.693632 412.600403,445.814312 C412.732952,445.934991 412.799719,446.111832 412.78,446.29 C412.75879,446.704023 412.48432,447.062027 412.09,447.19 L412.09,447.19 Z M418.68,436.46 L412.81,437.71 C412.632979,437.750075 412.447514,437.701873 412.312409,437.580675 C412.177303,437.459478 412.109315,437.280318 412.13,437.1 C412.152702,436.683334 412.431743,436.324567 412.83,436.2 L418.7,434.95 C418.877021,434.909925 419.062486,434.958127 419.197591,435.079325 C419.332697,435.200522 419.400685,435.379682 419.38,435.56 C419.357298,435.976666 419.078257,436.335433 418.68,436.46 L418.68,436.46 Z M428.77,429.63 L426.44,430.13 C426.262979,430.170075 426.077514,430.121873 425.942409,430.000675 C425.807303,429.879478 425.739315,429.700318 425.76,429.52 C425.77862,429.099596 426.058438,428.735833 426.46,428.61 L428.79,428.11 C428.967021,428.069925 429.152486,428.118127 429.287591,428.239325 C429.422697,428.360522 429.490685,428.539682 429.47,428.72 C429.45138,429.140404 429.171562,429.504167 428.77,429.63 Z M431.17,433.8 L423.08,435.52 C422.904457,435.556299 422.722147,435.506368 422.589597,435.385688 C422.457048,435.265009 422.390281,435.088168 422.41,434.91 C422.42862,434.489596 422.708438,434.125833 423.11,434 L431.2,432.27 C431.375543,432.233701 431.557853,432.283632 431.690403,432.404312 C431.822952,432.524991 431.889719,432.701832 431.87,432.88 C431.855519,433.304133 431.57491,433.672933 431.17,433.8 L431.17,433.8 Z" id="Shape" fill="#EDEEEF" fill-rule="nonzero"></path>
            <path d="M522.81,497 C521.12,495.86 516.67,493.49 512.17,491.19 L498.71,484.3 C498.71,484.3 498.09,487.18 503.71,490.21 C506.62,491.77 524.77,503.21 516.92,502.21 C508.05,501.09 494.46,493.09 494.46,493.09 C494.46,493.09 493.46,497.26 501.63,501.09 C519.02,509.2 528.88,521.09 516.42,523.09 C511.98,523.8 508.96,525.35 507.63,527.33 C506.49,529.03 507.96,530.33 510.3,530.17 C513.13,530 521.97,529.58 524.38,529.5 C532.17,529.25 536.38,528.24 541.3,528.75 C543.61,528.99 550.89,530.36 554.19,532.22 L582.7,524.36 C559,516.08 526.63,499.56 522.81,497 L522.81,497 Z M463.59,554.07 C467.91,550.54 470.47,542.73 471.85,538.86 C473.23,534.99 477.12,531.01 476.23,530.36 C475.02,529.49 470.51,530.31 467.85,532.17 C447.31,546.58 443.52,540.55 443.52,540.55 L441.4,563 C442.704738,562.875117 443.996222,562.637564 445.26,562.29 L459.42,558.39 C460.635309,556.791051 462.034979,555.341033 463.59,554.07 L463.59,554.07 Z" id="Shape" fill="#24292E" fill-rule="nonzero" opacity="0.9"></path>
            <path d="M446.89,612.2 C446.89,612.2 422.89,609.6 428.33,583.07 C430.63,571.83 434,561.57 434.77,556.01 C435.23,552.69 430.13,545.39 428.83,538.56 C427.63,532.21 426.12,516.24 426.6,514.86 C427.05,512.86 431.35,504.86 431.35,504.86 C431.35,504.86 432.99,506.41 432.75,509.86 C432.56,512.59 431.69,514.78 431.82,515.76 C431.89,516.31 433.12,522.84 433.44,523.82 C434.33,525.75 435.05,524.49 435.13,523.57 C435.48,519.77 434.36,510.38 436.23,506.07 C438.51,500.42 441.73,493.3 441.73,493.3 C441.73,493.3 444.6,494.98 444.89,497.22 L446.35,493.04 C446.35,493.04 449.51,496.04 449.18,500.09 C448.85,504.14 448.18,506.71 448.39,508.47 C448.6,510.23 449.39,518.7 449.86,520.15 C450.08,520.83 450.86,520.82 450.98,520.08 C451.21,518.03 452.69,507.66 452.69,507.66 L456.23,496.01 C458.286953,497.556963 459.416997,500.04306 459.23,502.61 C458.99,507.09 458.3,510.02 458.23,511.73 C458.47,512.92 458.82,526.51 459.18,529.22 C459.54,531.93 460.94,534.77 464.37,531.56 C466.37,529.72 470.57,522.5 478,525.85 C478,525.85 472.18,531.85 471.37,533.11 C470.56,534.37 466.71,544.82 463.97,546.93 C461.23,549.04 454.15,553.83 452.34,560.13 C451.51,565.55 448.26,593.78 446.89,612.2 L446.89,612.2 Z" id="Path" fill="#F2D1B3"></path>
            <path d="M442.09,521.09 C441.893217,521.090288 441.730637,520.936496 441.72,520.74 C441.72,520.35 441.14,511.15 441.23,508.81 C441.31,506.7 443.7,499.37 443.8,499.06 C443.863513,498.863939 444.073939,498.756487 444.27,498.82 C444.466061,498.883513 444.573513,499.093939 444.51,499.29 C444.51,499.37 442.05,506.83 441.97,508.84 C441.88,511.14 442.46,520.6 442.46,520.69 C442.46825,520.789829 442.435672,520.888737 442.369711,520.964122 C442.303749,521.039507 442.21004,521.084926 442.11,521.09 L442.09,521.09 Z" id="Path" fill="#D3AB90" fill-rule="nonzero"></path>
            <path d="M591.08,516.23 C591.08,516.23 556.08,507.14 552.48,506.23 C549.715374,505.369839 547.130049,504.014492 544.85,502.23 C542.64,500.48 536.53,491.87 536.13,491.33 C535.13,490 521.65,479.66 521.65,479.66 C520.933095,481.327715 520.90434,483.211177 521.57,484.9 C521.57,484.9 511.28,479.19 510.21,478.57 C509.14,477.95 505.81,475.73 505.81,475.73 C505.81,475.73 504.52,480.09 507.66,482.62 C509.492336,484.11346 511.419725,485.486349 513.43,486.73 L497.67,479.45 C497.67,479.45 497.27,483.15 499.49,485.21 C501.49,487.06 507.76,489.37 509.89,490.96 C512.110157,492.713562 514.236434,494.582817 516.26,496.56 C516.75,497.05 516.48,497.56 515.79,497.31 C512.88,496.31 507.23,493.75 505.67,493.09 C503.74,492.27 492.17,487.65 492.16,487.63 C492.15,487.61 491.4,492.46 495.29,494.84 C498.76,496.96 504.04,499.04 505.62,499.84 C512.85,503.62 523.23,510.5 524.18,514.66 C525.05,518.45 524.98,520.15 513.99,521.4 C505.29,522.4 503.77,527.66 503.77,527.66 C503.77,527.66 517.77,527.45 519.66,527.2 C522.15,526.86 534.16,525.54 540.4,524.12 C544.12,523.28 551.26,523.67 554.48,524.28 C557.7,524.89 602.12,535.22 602.12,535.22 C602.12,535.22 603.1,519.63 591.08,516.23 L591.08,516.23 Z" id="Path" fill="#F2D1B3"></path>
            <path d="M523.69,493.81 C523.593615,493.81181 523.50033,493.775931 523.43,493.71 C521.385544,491.82214 519.246096,490.039823 517.02,488.37 C516.854315,488.245736 516.820736,488.010685 516.945,487.845 C517.069264,487.679315 517.304315,487.645736 517.47,487.77 C519.716929,489.455464 521.876403,491.254469 523.94,493.16 C524.048538,493.267434 524.082215,493.429405 524.025498,493.571199 C523.96878,493.712993 523.832688,493.807057 523.68,493.81 L523.69,493.81 Z M529.91,491.210026 C529.818552,491.211061 529.729788,491.179106 529.66,491.12 C527.66,489.36 523.88,486.68 523.85,486.65 C523.741034,486.573188 523.681324,486.444078 523.693362,486.311305 C523.7054,486.178531 523.787358,486.062266 523.908362,486.006304 C524.029366,485.950343 524.171034,485.963188 524.28,486.04 C524.28,486.04 528.13,488.77 530.16,490.55 C530.274562,490.655062 530.313585,490.819304 530.258523,490.964668 C530.203461,491.110031 530.065417,491.207203 529.91,491.210026 L529.91,491.210026 Z" id="Shape" fill="#D3AB90" fill-rule="nonzero"></path>
            <path d="M511.35,464 L513.46,394.83 L510.46,395.47 L508.53,466.18 L509.88,465.85 C510.720846,465.619644 511.315596,464.87115 511.35,464 L511.35,464 Z" id="Path" fill="#404A51" fill-rule="nonzero"></path>
            <path d="M510.68,404 L510.68,405.37 C510.678679,405.483898 510.731339,405.591701 510.821988,405.660673 C510.912637,405.729645 511.03058,405.751648 511.14,405.72 L512.46,405.34 C512.608521,405.297218 512.713159,405.164408 512.720003,405.01 L512.720003,403.66 C512.720444,403.548405 512.66911,403.442914 512.581021,403.374401 C512.492933,403.305888 512.378052,403.2821 512.27,403.31 L510.95,403.67 C510.797532,403.709141 510.688174,403.842801 510.68,404 L510.68,404 Z" id="Path" fill="#8F979F" fill-rule="nonzero" opacity="0.4"></path>
            <path d="M511.51,379.21 L378.74,406.39 C377.838681,406.588197 377.189994,407.377363 377.17,408.3 L377.08,423.57 L513.45,394.81 L513.860109,381.2 C513.866216,380.604694 513.606902,380.037565 513.152576,379.652838 C512.698249,379.26811 512.096145,379.105783 511.51,379.21 Z" id="Path" fill="#FFFFFF" fill-rule="nonzero"></path>
            <path d="M509.3,385.65 C509.274799,385.662503 509.245201,385.662503 509.22,385.65 L507.7,384.29 C507.651744,384.239703 507.651744,384.160297 507.7,384.11 C507.745552,384.069257 507.814448,384.069257 507.86,384.11 L509.38,385.47 C509.428256,385.520297 509.428256,385.599703 509.38,385.65 C509.353825,385.657242 509.326175,385.657242 509.3,385.65 L509.3,385.65 Z" id="Path" fill="#24292E" fill-rule="nonzero"></path>
            <path d="M507.75,386 C507.724799,386.012503 507.695201,386.012503 507.67,386 C507.621744,385.949703 507.621744,385.870297 507.67,385.82 L509.24,383.82 C509.260782,383.797979 509.289721,383.785498 509.32,383.785498 C509.350279,383.785498 509.379218,383.797979 509.4,383.82 C509.448256,383.870297 509.448256,383.949703 509.4,384 L507.83,386 C507.803825,386.007242 507.776175,386.007242 507.75,386 L507.75,386 Z M434.18,408.79 L432.6,407.49 C432.588135,407.462542 432.592579,407.430758 432.61152,407.407608 C432.630462,407.384457 432.660736,407.373807 432.69,407.38 L434.27,408.68 C434.291841,408.706025 434.291841,408.743975 434.27,408.77 L434.18,408.79 Z" id="Shape" fill="#24292E" fill-rule="nonzero"></path>
            <path d="M432.58,409.13 C432.558159,409.103975 432.558159,409.066025 432.58,409.04 L434.2,407.04 C434.20878,407.015488 434.232367,406.999436 434.25839,407.000263 C434.284414,407.001089 434.306935,407.018605 434.314142,407.043625 C434.321348,407.068644 434.311596,407.095457 434.29,407.11 L432.67,409.11 L432.58,409.13 Z M501.44,387.39 L499.64,387.77 C499.609755,387.781247 499.575803,387.775442 499.551013,387.754784 C499.526224,387.734126 499.514391,387.701778 499.52,387.67 L499.52,385.73 C499.522196,385.658879 499.571096,385.597755 499.64,385.58 L501.44,385.21 C501.470245,385.198753 501.504197,385.204558 501.528987,385.225216 C501.553776,385.245874 501.565609,385.278222 501.56,385.31 L501.56,387.25 C501.553615,387.317341 501.505572,387.373391 501.44,387.39 L501.44,387.39 Z M499.76,387.49 L501.32,387.16 L501.32,385.47 L499.76,385.79 L499.76,387.49 Z M493.45,388.11 L491.63,388.49 C491.600228,388.496084 491.569305,388.4883 491.545961,388.468847 C491.522617,388.449393 491.509385,388.420381 491.509979,388.39 C491.512196,388.318879 491.561096,388.257755 491.63,388.24 L493.45,387.86 C493.479772,387.853916 493.510695,387.8617 493.534039,387.881153 C493.557383,387.900607 493.570615,387.929619 493.570021,387.96 C493.567804,388.031121 493.518904,388.092245 493.45,388.11 L493.45,388.11 Z M380.18,411.5 C380.159536,411.908803 380.338923,412.302072 380.661051,412.554604 C380.983179,412.807136 381.4079,412.887459 381.8,412.77 C382.718034,412.554669 383.38523,411.761357 383.44,410.82 C383.459377,410.413543 383.281268,410.022748 382.961783,409.770732 C382.642298,409.518716 382.220771,409.436505 381.83,409.55 C380.906186,409.758491 380.232708,410.554419 380.18,411.5 L380.18,411.5 Z" id="Shape" fill="#24292E" fill-rule="nonzero"></path>
            <path d="M387.91,421.23 L389.64,414.62 C389.81733,413.97541 390.330333,413.47772 390.98,413.32 L394.98,412.49 C395.251874,412.413329 395.543105,412.448347 395.789055,412.58728 C396.035005,412.726214 396.215328,412.95757 396.29,413.23 L397.87,419.1" id="Path" fill="#EBEBEB" fill-rule="nonzero"></path>
            <path d="M393.05,417.55 L392.78,417.61 C392.477891,417.681518 392.1597,417.608663 391.918808,417.412816 C391.677917,417.216969 391.54165,416.920347 391.55,416.61 C391.587972,415.888144 392.096825,415.27752 392.8,415.11 L393.07,415.05 C393.370664,414.982095 393.685842,415.05664 393.92423,415.25204 C394.162618,415.447439 394.297573,415.741856 394.29,416.05 C394.253264,416.768967 393.749226,417.378691 393.05,417.55 L393.05,417.55 Z" id="Path" fill="#B5B5B5" fill-rule="nonzero"></path>
            <path d="M384.91,416.48 L380.31,417.48 C380.242226,417.499268 380.169323,417.484907 380.113919,417.441375 C380.058516,417.397844 380.027314,417.330409 380.03,417.26 C380.038365,417.097407 380.152028,416.959387 380.31,416.92 L384.91,415.92 C384.978095,415.895458 385.054029,415.907714 385.110945,415.952434 C385.167861,415.997153 385.197734,416.068032 385.19,416.14 C385.184974,416.303869 385.069864,416.443645 384.91,416.48 L384.91,416.48 Z M396.35,408.41 L386.08,410.55 C386.012226,410.569268 385.939323,410.554907 385.883919,410.511375 C385.828516,410.467844 385.797314,410.400409 385.8,410.33 C385.809417,410.169915 385.923585,410.035359 386.08,410 L396.35,407.87 C396.416842,407.849759 396.489372,407.864072 396.543514,407.908188 C396.597655,407.952303 396.626323,408.020448 396.62,408.09 C396.607659,408.243417 396.499152,408.372018 396.35,408.41 L396.35,408.41 Z M384.9,418 L380.3,419 C380.232226,419.019268 380.159323,419.004907 380.103919,418.961375 C380.048516,418.917844 380.017314,418.850409 380.02,418.78 C380.028365,418.617407 380.142028,418.479387 380.3,418.44 L384.9,417.44 C384.968095,417.415458 385.044029,417.427714 385.100945,417.472434 C385.157861,417.517153 385.187734,417.588032 385.18,417.66 C385.171635,417.822593 385.057972,417.960613 384.9,418 L384.9,418 Z M384.88,419.51 L380.28,420.51 C380.212226,420.529268 380.139323,420.514907 380.083919,420.471375 C380.028516,420.427844 379.997314,420.360409 380,420.29 C380.008365,420.127407 380.122028,419.989387 380.28,419.95 L384.88,418.95 C384.948095,418.925458 385.024029,418.937714 385.080945,418.982434 C385.137861,419.027153 385.167734,419.098032 385.16,419.17 C385.151635,419.332593 385.037972,419.470613 384.88,419.51 L384.88,419.51 Z" id="Shape" fill="#24292E" fill-rule="nonzero"></path>
            <path d="M445.12,407.74 L440.38,408.74 C440.141198,408.806895 439.885503,408.774549 439.670882,408.650295 C439.456261,408.52604 439.300893,408.320403 439.24,408.08 L438.61,405.64 C438.503166,405.030973 438.888666,404.443961 439.49,404.3 L444.23,403.3 C444.468917,403.233564 444.724598,403.267509 444.937904,403.393982 C445.15121,403.520456 445.303663,403.728502 445.36,403.97 L445.98,406.4 C446.088333,407.002929 445.713259,407.587347 445.12,407.74 L445.12,407.74 Z" id="Path" fill="#EBEBEB" fill-rule="nonzero"></path>
            <path d="M443.13,406.12 L441.5,406.47 C441.437223,406.486446 441.370368,406.47141 441.320677,406.42967 C441.270986,406.387929 441.244637,406.324674 441.25,406.26 C441.257974,406.108188 441.363035,405.978882 441.51,405.94 L443.14,405.59 C443.202777,405.573554 443.269632,405.58859 443.319323,405.63033 C443.369014,405.672071 443.395363,405.735326 443.39,405.8 C443.385274,405.953042 443.278834,406.084046 443.13,406.12 Z" id="Path" fill="#24292E" fill-rule="nonzero"></path>
            <path d="M442.3,407.14 C442.237223,407.156446 442.170368,407.14141 442.120677,407.09967 C442.070986,407.057929 442.044637,406.994674 442.05,406.93 L442.05,405.24 C442.054726,405.086958 442.161166,404.955954 442.31,404.92 C442.372777,404.903554 442.439632,404.91859 442.489323,404.96033 C442.539014,405.002071 442.565363,405.065326 442.56,405.13 L442.56,406.82 C442.552026,406.971812 442.446965,407.101118 442.3,407.14 L442.3,407.14 Z" id="Path" fill="#24292E" fill-rule="nonzero"></path>
            <path d="M396,419.47 L397.71,412.9 C397.884899,412.259625 398.394584,411.765269 399.04,411.61 L434.68,404.1 C434.941432,404.027379 435.22115,404.064109 435.454971,404.201761 C435.688792,404.339414 435.85664,404.566171 435.92,404.83 L437.4,410.55" id="Path" fill="#FFFFFF" fill-rule="nonzero"></path>
            <path d="M437.24,410.89 L435.7,404.95 C435.648584,404.737852 435.51271,404.555928 435.323883,404.446408 C435.135056,404.336889 434.909676,404.309286 434.7,404.37 L399.06,411.89 C398.553679,412.010564 398.149829,412.391555 398,412.89 L396.31,419.39 L395.74,419.51 L397.47,412.86 C397.681096,412.09041 398.294098,411.496564 399.07,411.31 L434.71,403.8 C435.023158,403.712065 435.358597,403.755023 435.63949,403.919034 C435.920383,404.083045 436.122663,404.354058 436.2,404.67 L437.77,410.74 L437.24,410.89 Z" id="Path" fill="#EBEBEB" fill-rule="nonzero"></path>
            <path d="M400.76,415.94 L400.49,416 C400.1908,416.064345 399.878608,415.98814 399.642704,415.793178 C399.4068,415.598216 399.273159,415.305964 399.28,415 C399.317796,414.283549 399.82233,413.677294 400.52,413.51 L400.79,413.45 C401.0892,413.385655 401.401392,413.46186 401.637296,413.656822 C401.8732,413.851784 402.006841,414.144036 402,414.45 C401.962204,415.166451 401.45767,415.772706 400.76,415.94 L400.76,415.94 Z M430.17,408.58 L404.28,414.1 C404.214942,414.119462 404.14449,414.106263 404.090888,414.064573 C404.037286,414.022883 404.007151,413.957846 404.009815,413.89 C404.018174,413.732801 404.127532,413.599141 404.28,413.56 L430.18,408 C430.244116,407.979483 430.314252,407.992598 430.366622,408.034897 C430.418992,408.077196 430.446569,408.143003 430.44,408.21 C430.4544,408.383278 430.339411,408.540854 430.17,408.58 L430.17,408.58 Z" id="Shape" fill="#B5B5B5" fill-rule="nonzero"></path>
            <path d="M474,283.26 L473.89,283.21 L474,283.26 Z" id="Path" fill="#EFB000" fill-rule="nonzero"></path>
            <path d="M331.06,556 C322.465103,556.009981 313.894645,555.084533 305.5,553.24 C289.62,549.7 257.97,541.39 257.65,541.3 C257.285298,541.227184 256.99113,540.957993 256.886325,540.601165 C256.781519,540.244338 256.883391,539.858825 257.150789,539.600352 C257.418186,539.341878 257.806934,539.253147 258.16,539.37 C258.48,539.45 290.09,547.76 305.93,551.29 C322.18,554.91 340.2,554.91 355.35,551.29 C371.61,547.41 402.16,539.77 402.46,539.7 C402.986097,539.591265 403.504104,539.917631 403.633132,540.439122 C403.762161,540.960613 403.456102,541.490871 402.94,541.64 C402.63,541.72 372.08,549.35 355.81,553.24 C347.694584,555.114558 339.389002,556.040756 331.06,556 L331.06,556 Z" id="Path" fill="#DDE7ED" fill-rule="nonzero"></path>
        </g>
    </g>
</svg>